<svg width="130" height="130" viewBox="0 0 130 130" fill="none" xmlns="http://www.w3.org/2000/svg">
<path d="M65 8.125C33.5918 8.125 8.125 33.5918 8.125 65C8.125 96.4082 33.5918 121.875 65 121.875C96.4082 121.875 121.875 96.4082 121.875 65C121.875 33.5918 96.4082 8.125 65 8.125ZM78.2031 48.3564C78.2031 49.6514 77.5811 50.8828 76.5273 51.6445L58.0684 65L76.5273 78.3555C77.5811 79.1172 78.2031 80.3359 78.2031 81.6436V87.5977C78.2031 88.4229 77.2637 88.9053 76.5908 88.4229L45.3604 65.8252C45.2306 65.7317 45.1249 65.6087 45.052 65.4663C44.9791 65.3239 44.9411 65.1663 44.9411 65.0063C44.9411 64.8464 44.9791 64.6887 45.052 64.5464C45.1249 64.404 45.2306 64.281 45.3604 64.1875L76.5908 41.5898C76.7426 41.4797 76.9219 41.4136 77.1089 41.3991C77.2959 41.3846 77.4833 41.4222 77.6502 41.5076C77.8172 41.5931 77.9572 41.7231 78.0548 41.8833C78.1524 42.0434 78.2037 42.2275 78.2031 42.415V48.3564V48.3564Z" fill="#E69225"/>
</svg>
