<svg width="75" height="74" viewBox="0 0 75 74" fill="none" xmlns="http://www.w3.org/2000/svg">
<path d="M32.3153 23.3105C31.1797 21.291 32.5826 18.7964 34.8539 18.7964L59.691 18.7964C61.9849 18.7964 63.4412 21.3359 62.3055 23.3555L49.887 45.4387C48.7512 47.4583 45.8808 47.4332 44.7339 45.3936L32.3153 23.3105Z" fill="#FF2966"/>
<path d="M34.8353 6.69287C35.9821 4.65352 38.9182 4.65353 40.065 6.69287L52.4824 28.774C53.607 30.7738 52.1619 33.2444 49.8675 33.2444H25.0328C22.7384 33.2444 21.2933 30.7738 22.4179 28.774L34.8353 6.69287Z" fill="#FCD712"/>
<path d="M12.6689 23.3105C11.5332 21.291 12.9361 18.7964 15.2074 18.7964L40.0445 18.7964C42.3384 18.7964 43.7947 21.3359 42.659 23.3555L30.2405 45.4387C29.1047 47.4583 26.2344 47.4332 25.0874 45.3936L12.6689 23.3105Z" fill="#FB991A"/>
<path d="M25.0618 23.1309C26.2086 21.0915 29.1448 21.0915 30.2916 23.1309L42.709 45.2119C43.8336 47.2118 42.3884 49.6824 40.0941 49.6824H15.2593C12.965 49.6824 11.5198 47.2117 12.6444 45.2119L25.0618 23.1309Z" fill="#94D40D"/>
<path d="M22.4931 39.6991C21.3574 37.6797 22.7603 35.185 25.0316 35.185L49.8687 35.185C52.1626 35.185 53.619 37.7246 52.4832 39.7442L40.0647 61.8274C38.929 63.8469 36.0586 63.8218 34.9116 61.7823L22.4931 39.6991Z" fill="#2D98E1"/>
<path d="M42.2044 24.3423C43.3512 22.3029 46.2873 22.3029 47.4342 24.3423L59.8516 46.4234C60.9762 48.4232 59.531 50.8939 57.2367 50.8939H32.4019C30.1076 50.8939 28.6624 48.4232 29.787 46.4234L42.2044 24.3423Z" fill="#6228F4"/>
</svg>
