<svg width="130" height="130" viewBox="0 0 130 130" fill="none" xmlns="http://www.w3.org/2000/svg">
<path d="M65 8.125C33.5918 8.125 8.125 33.5918 8.125 65C8.125 96.4082 33.5918 121.875 65 121.875C96.4082 121.875 121.875 96.4082 121.875 65C121.875 33.5918 96.4082 8.125 65 8.125ZM84.6396 65.8252L53.4092 88.4229C52.7363 88.9053 51.7969 88.4229 51.7969 87.5977V81.6436C51.7969 80.3486 52.4189 79.1172 53.4727 78.3555L71.9316 65L53.4727 51.6445C52.4189 50.8828 51.7969 49.6641 51.7969 48.3564V42.4023C51.7969 41.5771 52.7363 41.0947 53.4092 41.5771L84.6396 64.1748C85.1982 64.5811 85.1982 65.4189 84.6396 65.8252Z" fill="#E69225"/>
</svg>
